<svg xmlns="http://www.w3.org/2000/svg" width="16" height="17" viewBox="0 0 16 17" fill="none">
  <path d="M14.7997 12.5184L9.33407 3.02649C9.19749 2.79394 9.00251 2.60112 8.76845 2.46715C8.53439 2.33318 8.26938 2.2627 7.99969 2.2627C7.73 2.2627 7.465 2.33318 7.23094 2.46715C6.99688 2.60112 6.8019 2.79394 6.66532 3.02649L1.19969 12.5184C1.06828 12.7433 0.999023 12.9991 0.999023 13.2596C0.999023 13.5201 1.06828 13.7759 1.19969 14.0009C1.33453 14.2348 1.52918 14.4287 1.76367 14.5626C1.99816 14.6965 2.26406 14.7655 2.53407 14.7627H13.4653C13.7351 14.7653 14.0008 14.6961 14.235 14.5623C14.4693 14.4284 14.6637 14.2346 14.7984 14.0009C14.93 13.776 14.9995 13.5203 14.9997 13.2598C15 12.9993 14.9309 12.7434 14.7997 12.5184ZM7.49969 7.26274C7.49969 7.13013 7.55237 7.00295 7.64614 6.90918C7.73991 6.81541 7.86709 6.76274 7.99969 6.76274C8.1323 6.76274 8.25948 6.81541 8.35325 6.90918C8.44702 7.00295 8.49969 7.13013 8.49969 7.26274V9.76274C8.49969 9.89534 8.44702 10.0225 8.35325 10.1163C8.25948 10.2101 8.1323 10.2627 7.99969 10.2627C7.86709 10.2627 7.73991 10.2101 7.64614 10.1163C7.55237 10.0225 7.49969 9.89534 7.49969 9.76274V7.26274ZM7.99969 12.7627C7.85136 12.7627 7.70635 12.7187 7.58302 12.6363C7.45968 12.5539 7.36355 12.4368 7.30678 12.2997C7.25002 12.1627 7.23517 12.0119 7.2641 11.8664C7.29304 11.7209 7.36447 11.5873 7.46936 11.4824C7.57425 11.3775 7.70789 11.3061 7.85338 11.2771C7.99886 11.2482 8.14966 11.2631 8.28671 11.3198C8.42375 11.3766 8.54088 11.4727 8.6233 11.5961C8.70571 11.7194 8.74969 11.8644 8.74969 12.0127C8.74969 12.2116 8.67068 12.4024 8.53002 12.5431C8.38937 12.6837 8.19861 12.7627 7.99969 12.7627Z" fill="#FF7169"/>
</svg>